<svg width="628" height="100" viewBox="0 0 628 100" fill="none" xmlns="http://www.w3.org/2000/svg">
<g clip-path="url(#clip0_9_2)">
<path d="M31.9333 25.3986L38.7427 30.3386L22.0133 51.4347L41.3867 74.8027L34.6733 80.032L11.812 51.9026L31.9333 25.3986ZM8.68534 78.6946H0V5.25464L8.68534 3.35199V78.6946ZM65.3947 72.5266C66.588 72.5266 67.8213 72.3653 69.1093 72.0506C70.3907 71.7293 71.68 71.3253 72.9693 70.8186C74.2507 70.3026 75.46 69.6906 76.588 68.9653C77.6622 68.2805 78.6709 67.4981 79.6013 66.628V54.468H70.568C65.992 54.468 62.648 55.2666 60.544 56.8453C58.4493 58.4253 57.3933 60.9306 57.3933 64.356C57.3933 69.8026 60.06 72.5266 65.3947 72.5266ZM49.0773 64.7346C49.0773 59.472 50.8267 55.468 54.324 52.712C57.82 49.964 62.9053 48.5787 69.5853 48.5787H79.6013V45.2506C79.6013 37.208 76.072 33.1866 69.0213 33.1866C66.7573 33.1866 64.372 33.5093 61.8893 34.1386C59.392 34.7747 57.112 35.5653 55.032 36.5146L52.4853 30.3347C55.1165 28.861 57.9249 27.7292 60.8427 26.9667C63.832 26.176 66.7573 25.7733 69.5853 25.7733C81.8013 25.7733 87.9173 32.3333 87.9173 45.444V78.6986H81.4947L80.448 73.0013C77.8693 75.0893 75.1133 76.7 72.188 77.8453C69.2547 78.9813 66.4747 79.552 63.8147 79.552C59.2227 79.552 55.6133 78.24 53.0093 75.6133C50.3907 72.9773 49.0773 69.3613 49.0773 64.7346ZM135.315 25.3986L142.124 30.3386L125.404 51.4347L144.767 74.8027L138.063 80.032L115.193 51.9026L135.315 25.3986ZM112.075 78.6946H103.381V5.25464L112.075 3.35199V78.6946ZM168.783 72.5266C169.967 72.5266 171.208 72.3653 172.497 72.0506C173.777 71.7293 175.068 71.3253 176.356 70.8186C177.637 70.3026 178.847 69.6906 179.975 68.9653C181.103 68.232 182.103 67.4586 182.988 66.628V54.468H173.956C169.369 54.468 166.027 55.2666 163.931 56.8453C161.828 58.4253 160.78 60.9306 160.78 64.356C160.78 69.8026 163.447 72.5266 168.783 72.5266ZM152.464 64.7346C152.464 59.472 154.213 55.468 157.711 52.712C161.208 49.964 166.292 48.5787 172.972 48.5787H182.988V45.2506C182.988 37.208 179.459 33.1866 172.408 33.1866C170.128 33.1866 167.759 33.5093 165.269 34.1386C162.779 34.7747 160.491 35.5653 158.42 36.5146L155.873 30.3347C158.504 28.8611 161.312 27.7293 164.229 26.9667C167.219 26.176 170.128 25.7733 172.972 25.7733C185.188 25.7733 191.305 32.3333 191.305 45.444V78.6986H184.875L183.835 73.0013C181.248 75.0893 178.501 76.7 175.568 77.8453C172.635 78.9813 169.853 79.552 167.203 79.552C162.603 79.552 159 78.24 156.381 75.6133C153.771 72.9773 152.464 69.3613 152.464 64.7346ZM226.272 32.9026C221.743 32.9026 218.253 34.6106 215.836 38.028C213.403 41.452 212.185 46.456 212.185 53.04C212.185 59.5666 213.403 64.4906 215.836 67.8186C218.253 71.1466 221.743 72.8053 226.272 72.8053C230.864 72.8053 234.379 71.1466 236.811 67.8186C239.229 64.4906 240.445 59.5666 240.445 53.04C240.445 46.456 239.229 41.4533 236.811 38.0266C234.377 34.6107 230.864 32.9026 226.272 32.9026ZM226.272 25.868C233.451 25.868 239.092 28.2133 243.185 32.9026C247.279 37.592 249.325 44.3053 249.325 53.04C249.325 61.6613 247.303 68.2853 243.225 72.9026C239.172 77.5293 233.508 79.8333 226.272 79.8333C219.092 79.8333 213.451 77.528 209.365 72.9026C205.264 68.2853 203.217 61.6626 203.217 53.04C203.217 44.3053 205.28 37.592 209.405 32.9026C213.532 28.2133 219.156 25.868 226.272 25.868Z" fill="#FABF00"/>
<path d="M265.468 26.7387H274.872L276.757 31.7747C281.012 27.6253 287.152 25.1587 292.995 25.1587C299.328 25.1587 303.881 27.3347 306.459 31.7747C310.811 27.528 316.757 25.1587 322.495 25.1587C332.897 25.1587 338.539 31.0813 338.539 44.2V78.7373H325.267V44.9907C325.267 39.172 323.091 36.7067 316.951 36.7067C314.179 36.7067 310.811 37.2933 308.635 38.1813V78.7373H295.372V44.9907C295.372 39.172 293.292 36.7067 287.152 36.7067C284.872 36.7067 280.915 37.2933 278.739 38.1813V78.7373H265.468V26.7387ZM361.033 53.1813C361.033 64.2373 364.7 69.9587 372.219 69.9587C379.841 69.9587 383.315 64.2373 383.315 53.1813C383.315 41.6427 379.744 35.4213 372.219 35.4213C364.797 35.4213 361.033 41.6427 361.033 53.1813ZM396.876 53.0853C396.876 69.8613 387.665 80.216 372.219 80.216C356.779 80.216 347.472 69.8613 347.472 53.0853C347.472 36.0093 356.972 25.156 372.219 25.156C387.472 25.156 396.876 35.816 396.876 53.0853ZM419.692 37V69.9573C421.772 70.256 423.157 70.256 424.447 70.256C432.763 70.256 438.7 65.0267 438.7 51.7067C438.7 41.6333 436.228 35.816 426.824 35.816C423.851 35.816 421.28 36.5093 419.692 37ZM406.421 77.1613V5.13068L419.692 2.76133V28.5147C422.859 26.5413 427.017 25.1547 431.577 25.1547C445.631 25.1547 452.167 34.728 452.167 51.408C452.167 69.4667 442.263 80.216 425.833 80.216C418.209 80.216 410.087 78.7413 406.42 77.1627M474.589 78.744H461.317V26.744H474.589V78.744ZM458.248 9.76666L467.957 0L477.66 9.76666L467.957 19.436L458.248 9.76666ZM499.553 78.74H486.283V5.12933L499.553 2.76001V78.74ZM524.525 78.744H511.253V26.744H524.525V78.744ZM508.183 9.76666L517.885 0L527.595 9.76666L517.885 19.436L508.183 9.76666ZM531.248 27.7267L539.564 26.7427V16.2827L553.029 13.4227V26.7427H568.669V36.7027H553.029V59.2973C553.029 67.3867 555.109 68.8707 558.976 68.8707C561.643 68.8707 564.616 68.1773 567.583 67.0973L570.652 76.372C567.888 78.1533 561.644 80.224 555.407 80.224C544.424 80.224 539.564 73.5107 539.564 60.192V36.7027H531.248V27.7267ZM610.791 72.3693C606.036 85.496 600 94.6733 591.676 100L583.465 92.4987C589.105 87.5587 592.475 83.7147 595.545 78.0907L577.124 27.4773L590.291 23.924L602.176 64.8667L613.957 23.82L627.027 27.5747L610.791 72.3693Z" fill="#4F4A4F"/>
</g>
<defs>
<clipPath id="clip0_9_2">
<rect width="627.028" height="100" fill="white"/>
</clipPath>
</defs>
</svg>
