<svg width="405" height="131" viewBox="0 0 405 131" fill="none" xmlns="http://www.w3.org/2000/svg">
<path d="M366.504 2.63672V107.402C366.504 112.031 367.002 115.02 367.998 116.367C368.994 117.656 369.902 118.506 370.723 118.916C371.602 119.268 372.568 119.561 373.623 119.795C376.611 120.557 378.867 121.406 380.391 122.344V127.529H330.996V122.344C332.285 121.523 333.955 120.85 336.006 120.322C338.115 119.736 339.58 119.268 340.4 118.916C341.279 118.564 342.041 117.979 342.686 117.158C343.916 115.4 344.531 112.148 344.531 107.402V2.63672H366.504ZM392.607 2.63672C395.01 2.63672 399.023 2.19727 404.648 1.31836V42.8906H398.672C397.852 40.6641 397.119 38.3203 396.475 35.8594C395.889 33.3398 395.215 30.8789 394.453 28.4766C393.691 26.0156 392.812 23.6719 391.816 21.4453C390.82 19.1602 389.531 17.168 387.949 15.4688C384.434 11.7188 379.717 9.84375 373.799 9.84375V2.63672H392.607ZM306.65 1.31836C309.463 2.19727 311.602 2.63672 313.066 2.63672H337.236V9.84375C328.799 9.84375 322.822 13.7402 319.307 21.5332C317.607 25.2246 316.26 29.1797 315.264 33.3984C314.268 37.5586 313.389 40.7227 312.627 42.8906H306.475V1.49414L306.65 1.31836Z" fill="#FCFCF8"/>
<path d="M295.049 2.63672V7.82227C293.35 8.52539 291.738 9.08203 290.215 9.49219C288.691 9.90234 287.373 10.4297 286.26 11.0742C283.74 12.4805 282.48 15.0586 282.48 18.8086V111.357C282.48 115.107 283.74 117.686 286.26 119.092C287.432 119.736 288.779 120.264 290.303 120.674C291.826 121.084 293.467 121.641 295.225 122.344V127.529H247.852V122.344C249.551 121.641 251.162 121.084 252.686 120.674C254.209 120.264 255.557 119.736 256.729 119.092C259.307 117.686 260.596 115.107 260.596 111.357V18.8086C260.596 15.0586 259.307 12.4805 256.729 11.0742C255.557 10.4297 254.209 9.90234 252.686 9.49219C251.162 9.08203 249.551 8.52539 247.852 7.82227V2.63672H295.049Z" fill="#FCFCF8"/>
<path d="M211.729 44.0332C213.193 43.3887 214.746 43.0664 216.387 43.0664C218.086 43.0664 219.668 43.3887 221.133 44.0332C222.598 44.6191 223.857 45.4395 224.912 46.4941C227.197 48.7793 228.34 51.6211 228.34 55.0195C228.34 60.293 225.938 63.8965 221.133 65.8301C219.668 66.416 218.086 66.709 216.387 66.709C214.746 66.709 213.193 66.416 211.729 65.8301C210.264 65.2441 208.975 64.4238 207.861 63.3691C205.576 61.2012 204.434 58.418 204.434 55.0195C204.434 49.6875 206.865 46.0254 211.729 44.0332ZM211.729 106.611C213.193 106.025 214.746 105.732 216.387 105.732C218.086 105.732 219.668 106.055 221.133 106.699C222.598 107.285 223.857 108.105 224.912 109.16C227.197 111.445 228.34 114.258 228.34 117.598C228.34 122.871 225.938 126.475 221.133 128.408C219.668 128.994 218.086 129.287 216.387 129.287C214.746 129.287 213.193 128.994 211.729 128.408C210.264 127.822 208.975 127.002 207.861 125.947C205.576 123.779 204.434 120.996 204.434 117.598C204.434 112.324 206.865 108.662 211.729 106.611Z" fill="#FCFCF8"/>
<path d="M100.811 127.529V122.344C101.865 121.641 103.008 121.143 104.238 120.85C105.527 120.557 106.729 120.205 107.842 119.795C110.596 118.916 112.148 117.305 112.5 114.961C112.91 112.617 113.115 109.6 113.115 105.908V24.1699C113.115 17.3145 112.354 13.2715 110.83 12.041C109.6 11.0449 107.871 10.2832 105.645 9.75586C103.477 9.16992 101.865 8.52539 100.811 7.82227V2.63672H148.008V7.82227C146.719 8.52539 145.4 9.05273 144.053 9.4043C142.705 9.69727 141.445 10.0488 140.273 10.459C137.52 11.4551 135.996 13.0371 135.703 15.2051C135.293 17.5488 135.088 20.4785 135.088 23.9941V127.529H100.811ZM142.383 120.234C143.262 120.293 144.17 120.322 145.107 120.322H148.008C159.023 120.322 166.963 116.865 171.826 109.951C173.994 106.787 175.693 103.184 176.924 99.1406C178.154 95.0391 179.033 92.2559 179.561 90.791C180.674 87.627 182.051 84.9902 183.691 82.8809H189.229V127.529H142.383V120.234Z" fill="#FCFCF8"/>
<path d="M42.627 0.175781C46.9629 0.585938 50.6543 1.58203 53.7012 3.16406C56.8066 4.74609 58.916 5.85938 60.0293 6.50391C61.2012 7.14844 62.168 7.4707 62.9297 7.4707C63.75 7.4707 64.4238 7.29492 64.9512 6.94336C65.4785 6.5918 65.9473 6.18164 66.3574 5.71289C66.7676 5.24414 67.1191 4.74609 67.4121 4.21875C67.7051 3.63281 67.998 3.10547 68.291 2.63672H76.377V43.8574H70.0488C68.7598 42.5098 67.2949 39.5801 65.6543 35.0684C64.0137 30.498 62.6074 26.8652 61.4355 24.1699C60.3223 21.4746 58.916 18.9551 57.2168 16.6113C53.4668 11.3965 48.6035 8.32031 42.627 7.38281V0.175781ZM24.7852 127.09C21.3281 125.508 18.8965 124.395 17.4902 123.75C16.084 123.047 14.6191 122.695 13.0957 122.695C11.6309 122.695 9.99023 124.307 8.17383 127.529H0V84.1113H6.06445C7.35352 85.459 8.49609 87.3047 9.49219 89.6484C10.5469 91.9922 11.6309 94.541 12.7441 97.2949C13.916 99.9902 15.1758 102.773 16.5234 105.645C17.8711 108.516 19.5117 111.182 21.4453 113.643C25.7812 119.092 31.2891 122.168 37.9688 122.871V130.078C32.6953 129.609 28.3008 128.613 24.7852 127.09ZM45.2637 122.783C51.5918 122.021 56.4844 119.443 59.9414 115.049C62.9883 111.123 64.5117 106.641 64.5117 101.602C64.5117 96.5039 63.6035 92.4316 61.7871 89.3848C59.9707 86.2793 57.5684 83.5547 54.5801 81.2109C51.6504 78.8086 48.2812 76.6406 44.4727 74.707C40.6641 72.7734 36.7676 70.8691 32.7832 68.9941C28.8574 67.0605 24.9902 65.0684 21.1816 63.0176C17.4316 60.9082 14.0918 58.5059 11.1621 55.8105C4.54102 49.7168 1.23047 42.3047 1.23047 33.5742C1.23047 24.7266 4.24805 17.168 10.2832 10.8984C16.7285 4.33594 25.0781 0.703125 35.332 0V7.29492C28.0664 8.23242 23.1738 11.9531 20.6543 18.457C19.834 20.5664 19.4238 23.2031 19.4238 26.3672C19.4238 29.5312 20.3613 32.4902 22.2363 35.2441C24.1113 37.998 26.5723 40.459 29.6191 42.627C32.666 44.7949 36.123 46.7871 39.9902 48.6035C43.916 50.4199 47.9004 52.2656 51.9434 54.1406C56.0449 56.0156 60.0293 58.0371 63.8965 60.2051C67.8223 62.373 71.3086 64.8926 74.3555 67.7637C81.1523 74.2676 84.5508 82.1191 84.5508 91.3184C84.5508 101.279 80.9473 109.951 73.7402 117.334C66.1816 125.186 56.6895 129.463 45.2637 130.166V122.783Z" fill="#FCFCF8"/>
</svg>
