<svg width="348" height="348" viewBox="0 0 348 348" fill="none" xmlns="http://www.w3.org/2000/svg">
<rect width="348" height="348" fill="#FF6C0F"/>
<g clip-path="url(#clip0_6_266)">
<path d="M97.0475 189.162C95.8887 187.283 94.547 185.461 92.9613 183.61C92.9613 183.61 92.9308 183.526 92.8698 183.47C90.5522 180.693 87.8687 178.058 84.8498 175.478L63.8697 158.512C60.5458 155.736 58.1977 153.1 56.7645 150.492C55.2703 147.8 54.5689 144.519 54.5689 140.649C54.5689 131.227 60.5458 127.076 71.4628 126.375C74.4817 126.207 77.2567 126.543 79.5743 127.441C82.0138 128.338 83.9655 129.628 85.4902 131.227C86.8929 132.713 88.0822 134.62 89.0275 136.947C89.9119 139.078 90.0338 139.387 90.6437 142.023C90.6437 142.163 90.6437 142.275 90.7047 142.415H99.0602C97.9014 134.62 95.3094 128.815 91.4976 125.057C87.2588 120.907 80.5196 118.916 71.7677 119C63.5952 119.084 57.3134 121.075 52.7697 125.141C48.2261 129.151 46 134.732 46 142.163C46 147.295 46.8843 151.613 48.531 155.007C50.2692 158.484 53.1357 161.849 56.9475 165.018L77.6836 182.04C80.1842 184.115 82.0138 185.797 83.3556 187.031C84.6973 188.349 86.1306 190.032 87.7163 191.995C88.7531 193.397 89.6374 194.799 90.2778 196.313H100.28C99.5176 193.789 98.4503 191.378 97.0475 189.162Z" fill="#FCFCF8"/>
<path d="M101.438 205.062C101.438 212.578 99.1206 218.327 94.272 222.617C89.4539 226.936 83.172 229.039 75.274 229.039C65.7903 229.039 58.868 226.515 54.0194 221.299C49.9942 216.868 47.3717 211.007 46.2129 203.744V203.688H55.2697V203.744C58.5936 219.084 67.6809 221.047 75.274 221.047C80.641 221.047 84.8797 219.56 87.8987 216.644C90.8261 213.728 92.3813 211.512 92.3813 206.296C92.3813 205.399 92.3203 204.558 92.2289 203.744H101.377C101.438 204.165 101.438 204.642 101.438 205.062Z" fill="#FCFCF8"/>
<path d="M145.686 119H115.375V176.179H144.924C154.743 176.179 163.221 171.019 167.429 163.475C168.74 161.204 169.624 158.68 169.929 156.044C170.112 155.006 170.204 153.997 170.204 152.931V141.518C170.204 129.095 159.195 119 145.656 119H145.686ZM145.381 166.953H125.164V127.581H146.51C153.95 127.581 159.988 133.021 160.171 139.835L160.324 145.78L160.568 152.118C160.568 159.802 153.767 166.953 145.412 166.953H145.381Z" fill="#FCFCF8"/>
<path d="M125.194 183.61H115.375V229.039H125.194V183.61Z" fill="#FCFCF8"/>
<path d="M188.164 119V156.044H198.715V126.852H230.185V119H188.164Z" fill="#FCFCF8"/>
<path d="M198.715 171.131V220.233H230.521V229.039H188.164V163.475H230.521V171.131H198.715Z" fill="#FCFCF8"/>
<path d="M292.73 197.042V203.604C292.73 212.886 284.527 220.402 274.464 220.402C264.4 220.402 256.868 213.531 256.198 204.81C256.167 204.417 256.137 204.025 256.137 203.604V144.463C256.137 144.07 256.137 143.705 256.198 143.341H246.897C246.836 143.733 246.836 144.07 246.836 144.463V203.604C246.836 217.597 259.247 228.955 274.464 228.955C289.68 228.955 302 217.597 302 203.604V197.042H292.73Z" fill="#FCFCF8"/>
<path d="M92.9606 183.61H92.8691V183.47C92.8691 183.47 92.9606 183.554 92.9606 183.61Z" fill="#FCFCF8"/>
<path d="M288.888 122.842L281.143 128.675C279.069 127.946 276.812 127.525 274.464 127.525C267.725 127.525 261.809 130.89 258.638 135.91H248.514C252.295 126.095 262.511 119.084 274.464 119.084C279.77 119.084 284.71 120.458 288.888 122.842Z" fill="#FCFCF8"/>
<path d="M301.969 144.322V150.856H292.699V144.322C292.699 141.266 291.814 138.377 290.229 135.909C289.619 134.9 288.857 133.975 288.033 133.105L295.169 127.721C297.425 130.105 299.225 132.853 300.383 135.909C301.298 138.237 301.847 140.733 301.939 143.341C301.969 143.649 301.969 143.986 301.969 144.322Z" fill="#FCFCF8"/>
</g>
<defs>
<clipPath id="clip0_6_266">
<rect width="256" height="110.039" fill="white" transform="translate(46 119)"/>
</clipPath>
</defs>
</svg>
